<svg width="63" height="62" viewBox="0 0 63 62" fill="none" xmlns="http://www.w3.org/2000/svg">
<path d="M27.676 4.03693C29.7735 3.74962 28.9424 1.49028 31.0595 1.49121C33.3124 1.4922 32.54 3.75765 34.7751 4.04002C36.8755 4.30538 36.6575 1.90792 38.7022 2.45677C40.8781 3.04081 39.5456 5.02915 41.6315 5.88039C43.5917 6.68034 44.0016 4.30813 45.8346 5.3675C47.7852 6.4948 45.9835 8.07053 47.778 9.43263C49.4643 10.7127 50.4742 8.52736 51.9706 10.0251C53.563 11.6188 51.4148 12.6745 52.7956 14.4546C54.0932 16.1275 55.6343 14.2781 56.6921 16.112C57.8177 18.0636 55.4695 18.5274 56.3425 20.6042C57.1629 22.5559 59.1302 21.1683 59.6772 23.2136C60.2594 25.39 57.8712 25.2302 58.1769 27.4622C58.4643 29.5598 60.7236 28.7286 60.7227 30.8458C60.7217 33.0987 58.4562 32.3262 58.1738 34.5614C57.9085 36.6618 60.3059 36.4437 59.7571 38.4885C59.1731 40.6643 57.1847 39.3319 56.3335 41.4178C55.5335 43.378 57.9057 43.7878 56.8464 45.6209C55.7191 47.5714 54.1433 45.7698 52.7812 47.5642C51.5012 49.2506 53.6865 50.2605 52.1888 51.7569C50.5951 53.3492 49.5394 51.2011 47.7592 52.5819C46.0863 53.8795 47.9358 55.4206 46.1018 56.4783C44.1503 57.6039 43.6865 55.2558 41.6097 56.1288C39.6579 56.9492 41.0455 58.9164 39.0003 59.4635C36.8239 60.0456 36.9837 57.6574 34.7516 57.9632C32.6541 58.2505 33.4852 60.5098 31.3681 60.5089C29.1152 60.5079 29.8876 58.2425 27.6525 57.9601C25.5521 57.6947 25.7701 60.0922 23.7254 59.5434C21.5495 58.9593 22.882 56.971 20.7961 56.1197C18.8359 55.3198 18.426 57.692 16.593 56.6326C14.6424 55.5053 16.4441 53.9296 14.6496 52.5675C12.9633 51.2875 11.9534 53.4728 10.457 51.9751C8.86466 50.3813 11.0128 49.3256 9.63197 47.5455C8.33437 45.8726 6.7933 47.7221 5.73554 45.8881C4.60995 43.9366 6.9581 43.4728 6.08508 41.3959C5.26467 39.4442 3.29744 40.8318 2.75038 38.7865C2.16824 36.6102 4.55642 36.7699 4.25068 34.5379C3.96336 32.4403 1.70403 33.2715 1.70496 31.1543C1.70594 28.9015 3.9714 29.6739 4.25377 27.4388C4.51913 25.3383 2.12166 25.5564 2.67051 23.5116C3.25456 21.3358 5.2429 22.6682 6.09414 20.5824C6.89409 18.6222 4.52188 18.2123 5.58125 16.3793C6.70855 14.4287 8.28427 16.2304 9.64637 14.4359C10.9264 12.7495 8.7411 11.7396 10.2388 10.2433C11.8325 8.65092 12.8883 10.799 14.6684 9.41822C16.3413 8.12062 14.4918 6.57956 16.3258 5.52179C18.2773 4.3962 18.7411 6.74436 20.818 5.87134C22.7697 5.05092 21.3821 3.08369 23.4273 2.53663C25.6037 1.9545 25.4439 4.34268 27.676 4.03693Z" stroke="#0629B0" stroke-width="0.2"/>
<path d="M56.9423 31.1619C56.9423 38.0149 54.22 44.5871 49.3742 49.4329C44.5284 54.2787 37.9561 57.001 31.1032 57.001C24.2502 57.001 17.6779 54.2787 12.8321 49.4329C7.98637 44.5871 5.26404 38.0149 5.26404 31.1619C5.26404 24.3089 7.98637 17.7366 12.8321 12.8909C17.6779 8.04508 24.2502 5.32275 31.1032 5.32275C37.9561 5.32275 44.5284 8.04508 49.3742 12.8909C54.22 17.7366 56.9423 24.3089 56.9423 31.1619Z" stroke="#0629B0" stroke-width="0.2"/>
<path d="M30.9876 11.7896C20.3093 11.7896 11.6334 20.4654 11.6334 31.1437C11.6334 41.822 20.3093 50.4822 30.9876 50.4822C41.6659 50.4822 50.3261 41.822 50.3261 31.1437C50.3261 20.4654 41.6659 11.7896 30.9876 11.7896ZM31.0347 19.9362C32.4563 19.9129 33.8644 20.0066 35.2728 20.3129L35.7751 20.8152L36.2774 20.3129H38.3023C38.6276 21.7686 38.5615 23.2787 38.3023 24.8179H36.2931L35.7908 24.3313L35.2728 24.8179C32.4739 25.1584 29.632 25.147 26.7494 24.8179L26.2472 24.3313L25.7449 24.8179H23.7357C23.3771 23.327 23.4252 21.8247 23.7357 20.3129H25.7292L26.2472 20.8152L26.7494 20.3129C28.1787 20.0996 29.613 19.9595 31.0347 19.9362ZM30.344 25.6969H32.0393C32.4656 25.6969 32.8434 26.7682 33.091 28.4125L47.014 28.3654C44.1106 38.2413 38.4534 45.0443 31.3329 50.3409C23.0408 44.9108 18.1701 37.3713 15.5262 28.4753L29.2923 28.4282C29.5399 26.7743 29.9163 25.6969 30.344 25.6969Z" stroke="#0629B0" stroke-width="0.2"/>
<path fill-rule="evenodd" clip-rule="evenodd" d="M31.1131 12.3076C26.2968 16.7417 21.3507 20.9201 14.1449 22.6989C14.5155 24.6787 14.9714 26.6086 15.5262 28.4753L29.2923 28.4282C29.3009 28.3706 29.3148 28.3275 29.3237 28.2713C29.3673 27.9959 29.4142 27.7396 29.465 27.5021C29.4975 27.3493 29.524 27.1985 29.5592 27.0626C29.5785 26.9882 29.6018 26.9118 29.622 26.8429C29.6491 26.7491 29.672 26.6593 29.7004 26.576C29.7044 26.5645 29.7121 26.556 29.7161 26.5446C29.752 26.4416 29.7882 26.3476 29.826 26.2621C29.8657 26.1721 29.91 26.096 29.9516 26.0266C29.9928 25.9579 30.0343 25.9013 30.0772 25.854C30.1233 25.803 30.1706 25.7687 30.2184 25.7441C30.2609 25.7222 30.3003 25.697 30.344 25.697H32.0393C32.0861 25.697 32.1349 25.7194 32.1805 25.7441C32.1853 25.7468 32.1915 25.7411 32.1962 25.7441C32.2298 25.7636 32.2576 25.8059 32.2904 25.8383C32.3091 25.8575 32.3348 25.862 32.3532 25.8854C32.3693 25.9048 32.3844 25.9257 32.4003 25.9481C32.4353 25.9992 32.4606 26.0552 32.4945 26.1208C32.5402 26.2075 32.5767 26.3075 32.62 26.419C32.6324 26.4509 32.655 26.4794 32.6671 26.5132C32.7022 26.6115 32.7281 26.7134 32.7613 26.8272C32.7661 26.8436 32.7722 26.8575 32.777 26.8743C32.788 26.9129 32.7976 26.9596 32.8084 26.9998C32.8488 27.151 32.8812 27.329 32.9183 27.5021C32.9776 27.7794 33.0415 28.084 33.0909 28.4125L47.014 28.3654C47.506 26.6918 47.9268 24.9337 48.2541 23.0756C42.5229 20.9488 35.8956 17.231 31.1131 12.3076ZM31.0347 19.9363C32.4563 19.913 33.8643 20.0066 35.2728 20.313L35.7751 20.8153L36.2774 20.313H38.3023C38.6275 21.7687 38.5615 23.2788 38.3023 24.818H36.2931L35.7908 24.3314L35.2728 24.818C32.4739 25.1585 29.632 25.1471 26.7494 24.818L26.2471 24.3314L25.7448 24.818H23.7356C23.3771 23.327 23.4252 21.8248 23.7356 20.313H25.7291L26.2471 20.8153L26.7494 20.313C28.1787 20.0997 29.613 19.9595 31.0347 19.9363Z" fill="#0629B0" stroke="#0629B0" stroke-width="0.2"/>
<path d="M32.0424 25.6997H30.3495C29.6024 25.6997 28.9967 28.9513 28.9967 32.9623V40.69C28.9967 44.701 29.6024 47.9526 30.3495 47.9526H32.0424C32.7895 47.9526 33.3952 44.701 33.3952 40.69V32.9623C33.3952 28.9513 32.7895 25.6997 32.0424 25.6997Z" stroke="#0629B0" stroke-width="0.2"/>
<path d="M26.2032 21.6377H26.2476C26.3528 21.6377 26.438 22.0639 26.438 22.5897C26.438 23.1154 26.3528 23.5416 26.2476 23.5416H26.2032C26.0981 23.5416 26.0128 23.1154 26.0128 22.5897C26.0128 22.0639 26.0981 21.6377 26.2032 21.6377Z" fill="#0629B0" stroke="#0629B0" stroke-width="0.2"/>
<path d="M35.7844 21.6377H35.74C35.6348 21.6377 35.5496 22.0639 35.5496 22.5897V22.5897C35.5496 23.1154 35.6348 23.5416 35.74 23.5416H35.7844C35.8895 23.5416 35.9748 23.1154 35.9748 22.5897V22.5897C35.9748 22.0639 35.8895 21.6377 35.7844 21.6377Z" fill="#0629B0" stroke="#0629B0" stroke-width="0.2"/>
<path d="M23.4871 31.5864V35.7042M23.4854 35.7025C22.174 34.9556 20.8387 34.9243 19.4637 35.7025V31.5319C20.8387 30.5102 22.18 30.5677 23.4914 31.5825C24.8664 30.5638 26.1957 30.5677 27.5071 31.5795V35.7025C26.1957 34.9556 24.8604 34.9243 23.4854 35.7025Z" stroke="#0629B0" stroke-width="0.2"/>
<path d="M39.0928 31.6089V35.7267M39.0912 35.725C37.7797 34.978 36.4444 34.9468 35.0695 35.725V31.5543C36.4444 30.5326 37.7857 30.5902 39.0971 31.605C40.4721 30.5863 41.8014 30.5902 43.1129 31.602V35.725C41.8014 34.978 40.4661 34.9468 39.0912 35.725Z" stroke="#0629B0" stroke-width="0.2"/>
<path d="M6.87335 34.8114L6.68892 32.6738C6.64726 32.1909 6.72494 31.813 6.92195 31.54C7.11897 31.267 7.39439 31.1152 7.74821 31.0847C8.10204 31.0541 8.38193 31.1481 8.58787 31.3667C8.87179 31.6672 9.03415 32.0539 9.07497 32.527L9.14176 33.3011L10.6225 33.1733C10.7086 33.1659 10.7684 33.1401 10.802 33.0958C10.8442 33.037 10.8613 32.9617 10.8534 32.8698L10.8109 32.3772L11.0308 32.3582L11.2102 34.4372L10.9902 34.4562L10.9528 34.0222C10.9454 33.9362 10.9228 33.8746 10.8852 33.8375C10.8475 33.8004 10.7993 33.7844 10.7407 33.7894L7.28356 34.0877C7.1956 34.0953 7.13426 34.1262 7.09954 34.1804C7.06484 34.2346 7.05355 34.3321 7.06569 34.4728L7.09327 34.7924L6.87335 34.8114ZM8.92771 33.3196L8.87685 32.7302C8.84464 32.3568 8.7437 32.0942 8.57404 31.9425C8.40438 31.7907 8.14068 31.7302 7.78294 31.7611C7.53273 31.7827 7.34387 31.8364 7.21637 31.9222C7.08887 32.0081 6.99907 32.1256 6.94695 32.2749C6.89484 32.4241 6.88296 32.6629 6.91129 32.9914C6.93001 33.2083 6.96239 33.3439 7.00841 33.398C7.05444 33.4522 7.12828 33.4748 7.22993 33.4661L8.92771 33.3196ZM6.56262 29.8954L6.81334 27.6609C6.86192 27.228 6.99807 26.9032 7.2218 26.6865C7.44554 26.4697 7.7173 26.3793 8.03708 26.4151C8.22817 26.4366 8.39299 26.5029 8.53154 26.6142C8.67009 26.7256 8.77372 26.8754 8.84242 27.0638C8.91112 27.2521 8.94353 27.5396 8.93964 27.9261C9.04698 27.6558 9.14311 27.4721 9.22804 27.3751C9.31298 27.278 9.41701 27.2042 9.54013 27.1539C9.66326 27.1035 9.90783 27.0574 10.2738 27.0156C10.5358 26.9857 10.7174 26.9429 10.8184 26.8871C10.8962 26.8445 10.9384 26.794 10.945 26.7355C10.9518 26.675 10.9137 26.614 10.8308 26.5524C10.7479 26.4908 10.5949 26.4415 10.372 26.4046L10.3943 26.2058C11.0531 26.3172 11.3571 26.5991 11.3064 27.0515C11.2904 27.1938 11.2405 27.3131 11.1567 27.4093C11.0728 27.5055 10.9577 27.5721 10.8114 27.609C10.7015 27.6381 10.4205 27.653 9.96829 27.6536C9.70568 27.6537 9.51622 27.6794 9.39992 27.7305C9.28361 27.7816 9.18477 27.8707 9.10337 27.9978C9.02199 28.1249 8.97079 28.2821 8.94978 28.4692L8.91007 28.8231L10.6094 29.0138C10.6815 29.0219 10.7343 29.0091 10.7677 28.9753C10.81 28.9327 10.8367 28.8616 10.8479 28.7622L10.8945 28.3469L11.1139 28.3715L10.8884 30.3808L10.669 30.3562L10.7166 29.9321C10.7271 29.8385 10.7163 29.7677 10.6842 29.7197C10.6521 29.6716 10.6038 29.644 10.5395 29.6368L7.08237 29.2489C7.00828 29.2406 6.95019 29.2568 6.90811 29.2975C6.86603 29.3382 6.83985 29.4043 6.82957 29.496L6.78198 29.9201L6.56262 29.8954ZM8.69949 28.7995L8.75692 28.2877C8.79543 27.9445 8.76073 27.6686 8.65283 27.4601C8.54494 27.2515 8.32525 27.1286 7.99377 27.0914C7.76564 27.0658 7.58117 27.0822 7.44038 27.1404C7.29958 27.1987 7.19814 27.2845 7.13605 27.398C7.07396 27.5115 7.02333 27.7427 6.98416 28.0917C6.95835 28.3218 6.95847 28.466 6.98451 28.5242C7.01056 28.5824 7.06258 28.6159 7.14057 28.6246L8.69949 28.7995ZM7.92733 22.4227C8.04857 22.0764 8.2534 21.7838 8.54182 21.5449C8.83024 21.306 9.16786 21.1581 9.55469 21.1012C9.94152 21.0444 10.3396 21.0876 10.7488 21.2309C11.1581 21.3742 11.4974 21.5896 11.7667 21.8773C12.0361 22.1649 12.2102 22.4914 12.2891 22.8569C12.368 23.2223 12.3485 23.5736 12.2305 23.9106C12.115 24.2402 11.9165 24.5179 11.6348 24.7436C11.3531 24.9692 11.0135 25.1107 10.6162 25.1681C10.2188 25.2254 9.81545 25.1824 9.40618 25.0391C9.00247 24.8978 8.66778 24.6855 8.40209 24.4023C8.13642 24.119 7.96299 23.7979 7.88181 23.439C7.80064 23.08 7.81581 22.7413 7.92733 22.4227ZM8.15678 22.4532C8.03035 22.8143 8.07792 23.1594 8.29947 23.4885C8.52102 23.8176 8.97069 24.1008 9.64848 24.3381C10.3837 24.5955 10.9322 24.6587 11.2941 24.5276C11.656 24.3965 11.8963 24.1615 12.0149 23.8227C12.0979 23.5856 12.1069 23.3549 12.0421 23.1305C11.9772 22.9062 11.8245 22.6921 11.584 22.4884C11.3435 22.2846 10.9973 22.1037 10.5454 21.9455C10.0528 21.773 9.65059 21.6883 9.33872 21.6914C9.02685 21.6945 8.77183 21.7653 8.57366 21.9038C8.37549 22.0423 8.23653 22.2254 8.15678 22.4532ZM12.3726 15.323L12.2319 14.882L12.3624 14.7113L13.6333 15.6608L13.5153 15.8152C13.0549 15.6162 12.6634 15.5435 12.3409 15.5971C12.0184 15.6506 11.763 15.8005 11.5747 16.0468C11.4174 16.2525 11.3503 16.4679 11.3733 16.693C11.3964 16.9181 11.4967 17.0986 11.6744 17.2344C11.7851 17.319 11.9012 17.3683 12.0227 17.3822C12.1442 17.396 12.2689 17.3735 12.3968 17.3144C12.5247 17.2553 12.7232 17.1113 12.9921 16.8822C13.3707 16.5616 13.6621 16.3565 13.8664 16.267C14.0707 16.1774 14.2671 16.1442 14.4557 16.1673C14.6442 16.1905 14.8258 16.2688 15.0004 16.4023C15.3121 16.6406 15.4903 16.943 15.535 17.3093C15.5797 17.6757 15.4751 18.0249 15.2212 18.3569C14.9483 18.7138 14.5958 18.9358 14.1637 19.0229L14.2844 19.5338L14.1557 19.7021L12.816 18.6778L12.9447 18.5094C13.3641 18.7264 13.7676 18.8028 14.1552 18.7385C14.5427 18.6742 14.8455 18.4994 15.0636 18.2141C15.24 17.9835 15.3157 17.7431 15.2908 17.4931C15.2658 17.2431 15.1559 17.0436 14.9611 16.8946C14.8504 16.81 14.7325 16.7631 14.6074 16.7539C14.4823 16.7447 14.346 16.7776 14.1986 16.8525C14.0511 16.9275 13.804 17.1078 13.4571 17.3934C13.0748 17.7062 12.7744 17.889 12.5561 17.9419C12.2482 18.0152 11.9485 17.9404 11.657 17.7175C11.353 17.4851 11.1782 17.1977 11.1325 16.8553C11.0868 16.5129 11.1796 16.1905 11.4108 15.8881C11.5216 15.7431 11.6528 15.6248 11.8044 15.5332C11.9559 15.4416 12.1453 15.3716 12.3726 15.323ZM16.3434 11.5283L16.2284 11.0754L16.3704 10.9562L17.5549 12.2483L17.4038 12.375C16.988 12.0811 16.6299 11.9078 16.3295 11.8551C15.9552 11.7876 15.6388 11.8623 15.3803 12.0792C15.1008 12.3139 14.9778 12.6297 15.0114 13.0268C15.0449 13.4238 15.3115 13.9199 15.811 14.5151C16.2311 15.0155 16.6522 15.3127 17.0743 15.4067C17.4323 15.4853 17.7661 15.3947 18.0757 15.1349C18.3462 14.9078 18.5003 14.6305 18.538 14.3031C18.5756 13.9756 18.4753 13.6134 18.237 13.2166L18.397 13.0822C18.6835 13.5181 18.8035 13.9373 18.7572 14.34C18.7109 14.7426 18.5164 15.0877 18.1738 15.3753C17.8958 15.6087 17.582 15.7529 17.2325 15.8081C16.883 15.8632 16.5287 15.818 16.1695 15.6724C15.8104 15.5268 15.4996 15.2977 15.2372 14.9851C14.9585 14.653 14.7685 14.2809 14.6673 13.8689C14.5661 13.4569 14.566 13.0836 14.6669 12.7491C14.7678 12.4147 14.9475 12.1389 15.206 11.922C15.3503 11.8009 15.5109 11.7084 15.6878 11.6444C15.8647 11.5805 16.0832 11.5418 16.3434 11.5283ZM17.7924 10.1479L19.5397 9.15987L19.6483 9.35202L19.3486 9.52152C19.2154 9.59685 19.1407 9.66107 19.1245 9.71417C19.1083 9.76728 19.1306 9.84763 19.1915 9.95523L20.814 12.8246C20.8787 12.939 20.9347 13.0021 20.9818 13.0137C21.045 13.0298 21.1304 13.0074 21.238 12.9466L21.5736 12.7568L21.6823 12.949L19.9351 13.937L19.8264 13.7448L20.1569 13.5579C20.273 13.4923 20.3385 13.4327 20.3534 13.3792C20.3682 13.3257 20.3433 13.2418 20.2786 13.1274L18.656 10.258C18.5942 10.1487 18.5407 10.0899 18.4955 10.0817C18.4254 10.0694 18.3264 10.0995 18.1983 10.172L17.9011 10.34L17.7924 10.1479ZM20.9026 8.46865L24.1607 7.33599L24.7208 8.69613L24.5346 8.76088C24.3084 8.34928 24.0849 8.08424 23.864 7.96575C23.6431 7.84728 23.4039 7.83281 23.1463 7.92237L22.3401 8.20263C22.2752 8.22518 22.2322 8.25986 22.2111 8.30667C22.19 8.35348 22.192 8.41303 22.2171 8.4853L22.7264 9.95034L23.0795 9.8276C23.2685 9.76189 23.3983 9.64093 23.469 9.46472C23.5397 9.28852 23.531 9.05889 23.4429 8.77581L23.6348 8.70913L24.2968 10.6134L24.105 10.6801C23.9862 10.3682 23.8433 10.165 23.6764 10.0703C23.5095 9.97567 23.3232 9.9641 23.1175 10.0356L22.795 10.1477L23.3633 11.7823C23.3839 11.8416 23.4196 11.8801 23.4704 11.8978C23.5212 11.9154 23.5929 11.9081 23.6856 11.8759L24.3222 11.6546C25.0135 11.4143 25.2586 10.8347 25.0576 9.91579L25.2577 9.84621L25.7207 11.4021L22.332 12.5802L22.2595 12.3717L22.5403 12.2741C22.6496 12.2361 22.7199 12.1904 22.7512 12.1369C22.7825 12.0834 22.7855 12.0206 22.7604 11.9483L21.6278 8.69019C21.6026 8.61791 21.5645 8.57093 21.5133 8.54924C21.4622 8.52756 21.3949 8.53122 21.3115 8.56021L20.9751 8.67715L20.9026 8.46865ZM26.0046 6.87145L27.0382 6.76624L29.9964 9.90272L29.7457 7.44026C29.7205 7.19236 29.6452 7.01463 29.5198 6.90708C29.4052 6.8083 29.2453 6.76739 29.0399 6.78435L29.0176 6.56474L30.5314 6.41064L30.5537 6.63025C30.3995 6.64595 30.2865 6.67914 30.2148 6.72983C30.143 6.78053 30.0846 6.86537 30.0395 6.98434C29.9944 7.10333 29.9787 7.23016 29.9924 7.36485L30.3427 10.8053L30.0674 10.8333L27.0045 7.56843L27.2704 10.1802C27.2944 10.4164 27.3719 10.5865 27.5028 10.6905C27.6337 10.7946 27.8243 10.8358 28.0745 10.8143L28.0969 11.0339L26.4455 11.202L26.4231 10.9824C26.6292 10.9535 26.7863 10.869 26.8943 10.7288C27.0023 10.5886 27.0469 10.4258 27.028 10.2404L26.729 7.30359L26.6739 7.25595C26.5656 7.16048 26.4899 7.10507 26.4469 7.08972C26.3876 7.06816 26.313 7.06195 26.2232 7.07109L26.027 7.09106L26.0046 6.87145ZM31.9445 6.48431L35.4558 6.86403L35.3638 8.50889L35.1619 8.48706C35.1332 7.51101 34.838 6.9926 34.2762 6.93184C34.1631 6.91961 34.0834 6.93073 34.0372 6.96521C33.9911 6.99969 33.9632 7.0618 33.9535 7.15153L33.5794 10.6102C33.5718 10.6804 33.5867 10.7343 33.6241 10.7719C33.6615 10.8095 33.727 10.8333 33.8206 10.8435L34.2566 10.8906L34.2329 11.1101L32.2227 10.8927L32.2464 10.6732L32.7438 10.727C32.8102 10.7342 32.8627 10.7231 32.9014 10.6937C32.9401 10.6644 32.9624 10.6224 32.9683 10.5678L33.3477 7.05938C33.3557 6.98525 33.3393 6.92674 33.2986 6.88385C33.2578 6.84096 33.1877 6.81414 33.0882 6.80337C32.8053 6.77279 32.5549 6.88089 32.3367 7.12767C32.1568 7.33123 32.0071 7.66633 31.8876 8.13297L31.674 8.10987L31.9445 6.48431ZM36.661 7.14733L38.6005 7.66465L38.5436 7.87793L38.2108 7.78918C38.063 7.74974 37.9647 7.74332 37.9159 7.76992C37.8672 7.79652 37.8269 7.86954 37.7951 7.98897L36.9455 11.1739C36.9116 11.301 36.9075 11.3851 36.933 11.4265C36.9669 11.4822 37.0435 11.526 37.163 11.5579L37.5355 11.6572L37.4786 11.8705L35.5392 11.3532L35.5961 11.1399L35.9629 11.2378C36.0918 11.2722 36.1803 11.2755 36.2283 11.2477C36.2764 11.2198 36.3173 11.1424 36.3512 11.0154L37.2007 7.83044C37.2331 7.70912 37.236 7.62968 37.2095 7.59214C37.168 7.53438 37.0762 7.48653 36.934 7.4486L36.6041 7.36061L36.661 7.14733ZM41.5917 8.71536L41.7713 8.79671L41.5519 13.0689C41.5427 13.2413 41.6266 13.3676 41.8036 13.4478L41.9269 13.5036L41.8358 13.7047L40.2541 12.9883L40.3451 12.7872L40.4711 12.8443C40.6356 12.9187 40.7598 12.9535 40.8439 12.9485C40.9017 12.9445 40.9424 12.9166 40.9659 12.8648C40.9796 12.8344 40.9879 12.7994 40.9908 12.7598L41.0423 11.7686L39.4767 11.0594L39.0731 11.4582C38.9665 11.5651 38.8963 11.656 38.8623 11.7311C38.8226 11.8187 38.8293 11.9121 38.8823 12.0115C38.9352 12.1109 39.0395 12.1958 39.195 12.2663L39.329 12.327L39.238 12.528L37.801 11.8772L37.892 11.6761C38.0457 11.7457 38.1825 11.7673 38.3022 11.7407C38.4219 11.7142 38.5618 11.6241 38.7219 11.4704L41.5917 8.71536ZM41.1678 9.44422L39.6572 10.8892L41.0593 11.5243L41.1678 9.44422ZM47.9549 12.8152L48.1021 12.9463L46.6204 16.9593C46.5603 17.1212 46.6027 17.2667 46.7478 17.3959L46.8489 17.486L46.702 17.6508L45.4054 16.4958L45.5522 16.331L45.6555 16.423C45.7903 16.5431 45.8986 16.6132 45.9804 16.6335C46.0367 16.647 46.0838 16.6324 46.1217 16.5899C46.1439 16.565 46.1622 16.5341 46.1768 16.4971L46.5212 15.5663L45.2377 14.423L44.7337 14.6835C44.6002 14.7538 44.506 14.8196 44.4512 14.8812C44.3872 14.953 44.3658 15.0442 44.3867 15.1549C44.4077 15.2655 44.482 15.3776 44.6094 15.4912L44.7193 15.589L44.5725 15.7539L43.3945 14.7046L43.5414 14.5397C43.6674 14.652 43.7915 14.7133 43.9137 14.7236C44.0358 14.7339 44.1962 14.6895 44.3948 14.5905L47.9549 12.8152ZM47.3332 13.3847L45.4607 14.3142L46.6101 15.3381L47.3332 13.3847ZM50.4378 15.3992L52.5086 18.2601L51.226 19.2939L51.1069 19.1294C51.8122 18.4542 51.9992 17.8877 51.6679 17.4299C51.6012 17.3377 51.5395 17.286 51.483 17.2749C51.4265 17.2637 51.3617 17.2846 51.2886 17.3375L48.4706 19.3773C48.4133 19.4188 48.3833 19.4659 48.3804 19.5189C48.3776 19.5718 48.4038 19.6364 48.459 19.7127L48.7161 20.0679L48.5373 20.1974L47.3517 18.5595L47.5305 18.4301L47.8239 18.8354C47.863 18.8894 47.9064 18.9209 47.9542 18.93C48.0019 18.939 48.048 18.9275 48.0925 18.8953L50.9511 16.8261C51.0115 16.7824 51.0439 16.731 51.0485 16.672C51.053 16.613 51.0259 16.543 50.9673 16.462C50.8004 16.2315 50.5523 16.118 50.223 16.1214C49.9514 16.1243 49.6023 16.2377 49.1758 16.4616L49.0498 16.2876L50.4378 15.3992ZM50.8093 24.199C50.7473 24.2591 50.6592 24.3332 50.5451 24.4214C50.3309 24.5855 50.1997 24.7116 50.1516 24.7999C50.1034 24.8881 50.0949 24.9693 50.1259 25.0435C50.1547 25.1123 50.218 25.1555 50.3158 25.173C50.4135 25.1906 50.5527 25.1637 50.7334 25.0923L50.8016 25.2552C50.4751 25.3898 50.2088 25.4268 50.0026 25.3663C49.7965 25.3059 49.6514 25.1752 49.5673 24.9743C49.4892 24.7879 49.5004 24.605 49.6009 24.4258C49.7013 24.2465 49.9554 24.0492 50.363 23.8339C50.2952 23.7432 50.2353 23.6534 50.1832 23.5646C50.1311 23.4758 50.0873 23.3888 50.0517 23.3038C49.9107 22.9671 49.8679 22.6197 49.9232 22.2616C49.9786 21.9034 50.1345 21.5722 50.3911 21.268C50.6477 20.9638 50.9814 20.7257 51.3923 20.5537C51.9751 20.3098 52.552 20.2905 53.123 20.496C53.6416 20.6831 54.0077 21.0318 54.2214 21.5422C54.3646 21.8842 54.4089 22.2326 54.3543 22.5873C54.2996 22.942 54.1464 23.2721 53.8945 23.5775C53.6427 23.8828 53.3168 24.1193 52.9168 24.2867C52.5512 24.4398 52.1976 24.5096 51.8559 24.4963C51.5143 24.483 51.1654 24.3839 50.8093 24.199ZM51.1272 23.9064C51.3527 23.9269 51.5826 23.9147 51.8169 23.8697C52.0513 23.8248 52.3304 23.7345 52.6544 23.5989C53.1105 23.408 53.4502 23.2072 53.6737 22.9967C53.8972 22.7861 54.0344 22.5638 54.0853 22.3298C54.1362 22.0958 54.114 21.8647 54.0185 21.6367C53.9245 21.4123 53.7769 21.2374 53.5756 21.1122C53.3742 20.987 53.1182 20.9304 52.8073 20.9425C52.4965 20.9545 52.1103 21.0572 51.6488 21.2504C51.323 21.3868 51.0559 21.5337 50.8475 21.6912C50.639 21.8486 50.4563 22.0347 50.2994 22.2493C50.3811 22.2108 50.4473 22.1809 50.498 22.1597C50.7224 22.0658 50.9372 22.0604 51.1422 22.1437C51.3472 22.227 51.4986 22.3853 51.5964 22.6188C51.6949 22.8541 51.6987 23.0843 51.6079 23.3095C51.5385 23.479 51.3782 23.678 51.1272 23.9064ZM50.6426 23.7169C50.9669 23.5769 51.1852 23.4354 51.2977 23.2926C51.4428 23.1107 51.4706 22.9129 51.3812 22.6993C51.31 22.5292 51.1973 22.4126 51.0433 22.3494C50.8892 22.2863 50.7262 22.2907 50.5543 22.3627C50.3841 22.4339 50.2511 22.5683 50.1551 22.7659C50.1528 22.9179 50.1812 23.0645 50.2403 23.2057C50.2858 23.3143 50.3422 23.4108 50.4095 23.4954C50.4768 23.5799 50.5545 23.6538 50.6426 23.7169ZM55.4002 25.0697L55.6934 27.0584L55.4751 27.0906L55.4162 26.6917C55.4005 26.5849 55.372 26.5127 55.3308 26.4752C55.2895 26.4376 55.233 26.4242 55.1612 26.4347L52.7299 26.7932C52.4757 26.8307 52.2868 26.8813 52.1633 26.9452C51.9809 27.0395 51.8453 27.1829 51.7567 27.3755C51.6681 27.5681 51.6447 27.806 51.6864 28.0894C51.7443 28.4815 51.8898 28.7655 52.1229 28.9414C52.3561 29.1172 52.6426 29.1801 52.9823 29.13L54.9593 28.8385C55.134 28.8128 55.2647 28.7811 55.3514 28.7435C55.438 28.706 55.5033 28.6607 55.547 28.6076C55.5907 28.5545 55.6196 28.4913 55.6336 28.4178C55.6475 28.3444 55.6425 28.2261 55.6184 28.0631L55.8368 28.0309L56.0768 29.6585L55.8584 29.6907L55.8412 29.5742C55.8143 29.3918 55.7453 29.2631 55.6341 29.1883C55.5229 29.1134 55.3741 29.0897 55.1878 29.1172L53.071 29.4293C52.609 29.4974 52.2353 29.4177 51.9499 29.19C51.6285 28.9339 51.4315 28.5594 51.3588 28.0664C51.2958 27.6393 51.307 27.2945 51.3922 27.0321C51.4775 26.7696 51.6255 26.5663 51.8363 26.4222C51.9968 26.3132 52.208 26.2395 52.4701 26.2008L55.0702 25.8175C55.1362 25.8077 55.1847 25.7773 55.2159 25.7261C55.247 25.6749 55.2558 25.6037 55.2424 25.5124L55.1819 25.1019L55.4002 25.0697ZM56.0589 31.3086L55.7609 34.745L54.2906 34.7003L54.3077 34.5038C54.7758 34.4656 55.109 34.3699 55.3074 34.2168C55.5058 34.0636 55.6168 33.8512 55.6404 33.5795L55.7141 32.7292C55.7201 32.6608 55.706 32.6073 55.6719 32.5689C55.6378 32.5305 55.5827 32.508 55.5064 32.5014L53.9612 32.3674L53.9289 32.7398C53.9116 32.9392 53.9689 33.1071 54.1009 33.2436C54.2328 33.3801 54.4459 33.4661 54.7402 33.5014L54.7227 33.7038L52.7142 33.5296L52.7317 33.3273C53.0649 33.3463 53.3088 33.299 53.4634 33.1854C53.618 33.0718 53.7047 32.9065 53.7235 32.6895L53.753 32.3494L52.0289 32.1998C51.9664 32.1944 51.9166 32.2113 51.8798 32.2504C51.8429 32.2896 51.8202 32.358 51.8117 32.4558L51.7535 33.1272C51.6903 33.8563 52.1191 34.317 53.0399 34.5091L53.0216 34.7202L51.4123 34.5068L51.7223 30.9325L51.9422 30.9516L51.9165 31.2477C51.9065 31.363 51.9195 31.4459 51.9555 31.4963C51.9915 31.5467 52.0476 31.5752 52.1239 31.5818L55.5603 31.8798C55.6366 31.8864 55.695 31.8708 55.7357 31.833C55.7764 31.7951 55.8006 31.7323 55.8082 31.6443L55.839 31.2895L56.0589 31.3086Z" fill="#0629B0"/>
<path d="M17.1457 46.9335L17.5961 46.8263L17.7565 46.9693L16.7141 48.1653L16.5691 48.036C16.8021 47.5918 16.904 47.2069 16.8749 46.8813C16.8457 46.5557 16.7155 46.2898 16.484 46.0835C16.2907 45.9112 16.0809 45.828 15.8548 45.8341C15.6286 45.8401 15.4411 45.9266 15.2923 46.0936C15.1996 46.1976 15.1417 46.3097 15.1187 46.4298C15.0958 46.5499 15.1089 46.676 15.1582 46.808C15.2075 46.9399 15.3362 47.1486 15.5444 47.4341C15.8356 47.8356 16.0182 48.1417 16.0922 48.3521C16.1661 48.5626 16.1844 48.7609 16.1472 48.9472C16.11 49.1335 16.0182 49.3087 15.872 49.4727C15.6109 49.7656 15.296 49.9206 14.9273 49.9376C14.5586 49.9546 14.2183 49.8241 13.9063 49.546C13.5709 49.247 13.376 48.8789 13.3217 48.4414L12.8032 48.5233L12.645 48.3823L13.7671 47.1234L13.9253 47.2644C13.6774 47.6664 13.571 48.063 13.606 48.4543C13.6409 48.8456 13.7925 49.1607 14.0605 49.3996C14.2773 49.5928 14.5113 49.6864 14.7624 49.6803C15.0136 49.6742 15.2208 49.5796 15.384 49.3965C15.4767 49.2925 15.5323 49.1785 15.5509 49.0544C15.5695 48.9304 15.547 48.792 15.4833 48.6393C15.4196 48.4866 15.2584 48.2266 14.9997 47.8593C14.7166 47.4545 14.5568 47.1413 14.5205 46.9196C14.4706 46.6071 14.5677 46.3138 14.8118 46.0399C15.0664 45.7543 15.3661 45.6016 15.711 45.5818C16.0559 45.5619 16.3704 45.6787 16.6546 45.932C16.7908 46.0534 16.8989 46.1931 16.9789 46.3511C17.0588 46.5091 17.1144 46.7032 17.1457 46.9335ZM20.1567 48.676L20.3214 48.7844L19.4378 52.9699C19.4018 53.1388 19.4649 53.2767 19.6272 53.3835L19.7403 53.4579L19.619 53.6423L18.1684 52.6877L18.2898 52.5033L18.4053 52.5793C18.5561 52.6786 18.6734 52.7323 18.7573 52.7405C18.815 52.7456 18.8595 52.7244 18.8908 52.6769C18.9091 52.649 18.9228 52.6157 18.9318 52.577L19.1375 51.606L17.7017 50.6612L17.2408 50.9921C17.1189 51.0809 17.0353 51.1598 16.99 51.2286C16.9371 51.309 16.9291 51.4023 16.9659 51.5088C17.0028 51.6152 17.0925 51.7154 17.2351 51.8092L17.358 51.8901L17.2366 52.0745L15.9189 51.2073L16.0402 51.0229C16.1812 51.1156 16.3128 51.1583 16.4352 51.1507C16.5576 51.1432 16.7099 51.076 16.892 50.9492L20.1567 48.676ZM19.6243 49.3297L17.9065 50.5212L19.1924 51.3673L19.6243 49.3297ZM22.1203 50.078L24.1412 50.7985C24.5977 50.9613 24.9092 51.189 25.0757 51.4816C25.2421 51.7743 25.2657 52.0878 25.1465 52.4224C25.0272 52.7569 24.8254 52.9724 24.541 53.0689C24.1497 53.2023 23.7305 53.1892 23.2832 53.0298L22.5514 52.7688L22.0522 54.1688C22.0232 54.2501 22.0219 54.3153 22.0482 54.3642C22.0841 54.427 22.1455 54.4739 22.2324 54.5049L22.6981 54.6709L22.624 54.8788L20.6585 54.1781L20.7326 53.9702L21.1429 54.1165C21.2242 54.1454 21.2896 54.1505 21.339 54.1317C21.3884 54.1129 21.423 54.0757 21.4428 54.0203L22.6081 50.7518C22.6377 50.6687 22.6351 50.6 22.6002 50.5459C22.5654 50.4918 22.4814 50.4411 22.3483 50.3936L22.0462 50.2859L22.1203 50.078ZM22.6235 52.5665L23.1807 52.7651C23.5337 52.891 23.8145 52.9083 24.0231 52.817C24.2316 52.7258 24.3962 52.5111 24.5168 52.1729C24.6011 51.9363 24.6307 51.7422 24.6056 51.5906C24.5805 51.4389 24.5109 51.3084 24.3969 51.199C24.2828 51.0896 24.0705 50.9795 23.76 50.8688C23.5548 50.7957 23.4181 50.7688 23.3497 50.7881C23.2814 50.8075 23.2301 50.8653 23.1958 50.9614L22.6235 52.5665ZM26.0756 51.3149L28.0588 51.6243L28.0248 51.8424L27.6846 51.7893C27.5333 51.7657 27.4349 51.7697 27.3893 51.8013C27.3436 51.8329 27.3113 51.9098 27.2922 52.0319L26.7841 55.2888C26.7638 55.4187 26.7686 55.5029 26.7983 55.5413C26.8379 55.5931 26.9188 55.6286 27.0409 55.6476L27.4218 55.7071L27.3878 55.9252L25.4046 55.6158L25.4386 55.3977L25.8137 55.4562C25.9456 55.4768 26.0339 55.4707 26.0787 55.438C26.1235 55.4052 26.1561 55.3239 26.1763 55.194L26.6845 51.9371C26.7038 51.813 26.6983 51.7337 26.668 51.6992C26.6206 51.6461 26.5243 51.6083 26.3789 51.5856L26.0416 51.533L26.0756 51.3149ZM28.9873 51.7558L32.4366 51.7812L32.5082 53.2504L32.311 53.249C32.2359 52.7854 32.1142 52.4607 31.9459 52.275C31.7775 52.0893 31.557 51.9955 31.2842 51.9935L30.4307 51.9872C30.3621 51.9867 30.3099 52.005 30.2743 52.042C30.2388 52.079 30.2207 52.1358 30.2201 52.2123L30.2087 53.7633L30.5825 53.766C30.7826 53.7675 30.9455 53.6971 31.0711 53.5548C31.1968 53.4125 31.2656 53.1932 31.2776 52.897L31.4807 52.8985L31.4658 54.9145L31.2627 54.913C31.2554 54.5794 31.189 54.34 31.0635 54.1949C30.938 54.0497 30.7663 53.9764 30.5485 53.9748L30.2072 53.9722L30.1944 55.7028C30.1939 55.7656 30.2147 55.8138 30.2566 55.8474C30.2986 55.8811 30.3686 55.8983 30.4667 55.899L31.1406 55.904C31.8725 55.9094 32.2978 55.4455 32.4165 54.5124L32.6284 54.514L32.5429 56.1351L28.9553 56.1086L28.9569 55.8879L29.2541 55.8901C29.3699 55.8909 29.4515 55.8714 29.4989 55.8316C29.5462 55.7917 29.5702 55.7335 29.5708 55.657L29.5962 52.2077C29.5967 52.1312 29.5766 52.0741 29.5356 52.0365C29.4947 51.999 29.4301 51.9798 29.3418 51.9792L28.9857 51.9766L28.9873 51.7558ZM33.113 51.8077L34.1234 51.566L37.4724 54.2811L36.8964 51.8739C36.8384 51.6315 36.7402 51.4654 36.6017 51.3755C36.475 51.2928 36.311 51.2735 36.1097 51.3177L36.0583 51.103L37.5382 50.7489L37.5895 50.9636C37.4388 50.9997 37.3312 51.0476 37.2668 51.1074C37.2025 51.1672 37.1558 51.259 37.127 51.3829C37.0981 51.5069 37.0994 51.6347 37.131 51.7663L37.9357 55.1296L37.6666 55.194L34.1966 52.3655L34.8076 54.9187C34.8628 55.1496 34.9622 55.3079 35.1058 55.3936C35.2493 55.4793 35.4437 55.4948 35.6889 55.4402L35.7402 55.6549L34.1259 56.0412L34.0745 55.8265C34.275 55.7704 34.4194 55.6658 34.5078 55.5125C34.5962 55.3592 34.6187 55.1919 34.5753 55.0106L33.8884 52.1397L33.8274 52.0998C33.7074 52.0196 33.625 51.9747 33.5804 51.9652C33.5186 51.9518 33.4439 51.9555 33.3561 51.9765L33.1643 52.0224L33.113 51.8077ZM37.8412 50.5741L40.9988 48.992L41.8121 50.4247L41.6305 50.5157C41.0779 49.7106 40.549 49.4346 40.0438 49.6878C39.942 49.7388 39.8811 49.7912 39.861 49.8452C39.8408 49.8992 39.851 49.9665 39.8914 50.0472L41.4498 53.1575C41.4815 53.2206 41.5232 53.2579 41.5749 53.2692C41.6267 53.2806 41.6947 53.2652 41.7789 53.223L42.171 53.0265L42.2699 53.2239L40.4622 54.1297L40.3633 53.9323L40.8106 53.7082C40.8702 53.6783 40.9084 53.6405 40.925 53.5949C40.9416 53.5492 40.9377 53.5019 40.913 53.4527L39.3322 50.2978C39.2988 50.2311 39.2534 50.1908 39.1959 50.1768C39.1384 50.1628 39.0649 50.1782 38.9755 50.2231C38.7211 50.3505 38.5691 50.577 38.5193 50.9026C38.4783 51.1712 38.5339 51.534 38.6861 51.991L38.494 52.0872L37.8412 50.5741ZM41.5201 48.5498L43.1387 47.3627L43.2693 47.5407L42.9916 47.7444C42.8682 47.8349 42.8015 47.9075 42.7917 47.9621C42.7819 48.0167 42.8136 48.0939 42.8867 48.1936L44.836 50.8517C44.9138 50.9577 44.9768 51.0137 45.025 51.0198C45.0896 51.0283 45.1718 50.996 45.2715 50.9229L45.5824 50.6949L45.7129 50.8729L44.0943 52.0599L43.9638 51.8819L44.2699 51.6574C44.3775 51.5785 44.4355 51.5116 44.444 51.4568C44.4524 51.4019 44.4178 51.3215 44.34 51.2155L42.3906 48.5573C42.3164 48.4561 42.2563 48.404 42.2104 48.4012C42.1394 48.3973 42.0446 48.4388 41.9259 48.5259L41.6506 48.7278L41.5201 48.5498ZM45.259 45.435L45.4061 45.3037L49.2235 47.2341C49.3775 47.3123 49.527 47.2868 49.6719 47.1574L49.7729 47.0673L49.9199 47.232L48.6243 48.3882L48.4774 48.2235L48.5806 48.1314C48.7152 48.0112 48.7973 47.9117 48.8268 47.8327C48.8466 47.7783 48.8375 47.7298 48.7997 47.6874C48.7774 47.6625 48.7488 47.6407 48.7137 47.622L47.8283 47.1736L46.5459 48.318L46.7472 48.8485C46.8017 48.9892 46.8564 49.0903 46.9113 49.1517C46.9753 49.2235 47.0635 49.2552 47.1758 49.247C47.2881 49.2388 47.408 49.1779 47.5353 49.0642L47.6451 48.9662L47.7921 49.1309L46.6151 50.1813L46.4681 50.0166C46.594 49.9043 46.6691 49.788 46.6933 49.6678C46.7175 49.5476 46.6918 49.3832 46.6161 49.1746L45.259 45.435ZM45.7538 46.1177L46.4633 48.084L47.6118 47.0591L45.7538 46.1177Z" fill="#0629B0"/>
<path d="M12.6725 42.2906C12.6725 42.4885 12.6335 42.6844 12.5578 42.8673C12.482 43.0501 12.371 43.2162 12.2311 43.3561C12.0912 43.496 11.9251 43.607 11.7422 43.6828C11.5594 43.7585 11.3635 43.7975 11.1656 43.7975C10.9677 43.7975 10.7717 43.7585 10.5889 43.6828C10.4061 43.607 10.24 43.496 10.1001 43.3561C9.96012 43.2162 9.84913 43.0501 9.7734 42.8673C9.69767 42.6844 9.65869 42.4885 9.65869 42.2906C9.65869 42.0927 9.69767 41.8967 9.7734 41.7139C9.84913 41.5311 9.96012 41.365 10.1001 41.225C10.24 41.0851 10.4061 40.9741 10.5889 40.8984C10.7717 40.8227 10.9677 40.7837 11.1656 40.7837C11.3635 40.7837 11.5594 40.8227 11.7422 40.8984C11.9251 40.9741 12.0912 41.0851 12.2311 41.225C12.371 41.365 12.482 41.5311 12.5578 41.7139C12.6335 41.8967 12.6725 42.0927 12.6725 42.2906Z" fill="#0629B0"/>
<path d="M52.8964 41.9356C52.8964 42.1335 52.8574 42.3294 52.7817 42.5123C52.7059 42.6951 52.5949 42.8612 52.455 43.0011C52.3151 43.1411 52.149 43.2521 51.9661 43.3278C51.7833 43.4035 51.5874 43.4425 51.3895 43.4425C51.1916 43.4425 50.9956 43.4035 50.8128 43.3278C50.63 43.2521 50.4639 43.1411 50.3239 43.0011C50.184 42.8612 50.073 42.6951 49.9973 42.5123C49.9215 42.3294 49.8826 42.1335 49.8826 41.9356C49.8826 41.7377 49.9215 41.5418 49.9973 41.3589C50.073 41.1761 50.184 41.01 50.3239 40.8701C50.4639 40.7301 50.63 40.6191 50.8128 40.5434C50.9956 40.4677 51.1916 40.4287 51.3895 40.4287C51.5874 40.4287 51.7833 40.4677 51.9661 40.5434C52.149 40.6191 52.3151 40.7301 52.455 40.8701C52.5949 41.01 52.7059 41.1761 52.7817 41.3589C52.8574 41.5418 52.8964 41.7377 52.8964 41.9356Z" fill="#0629B0"/>
</svg>
