<svg width="1130" height="139" viewBox="0 0 1130 139" fill="none" xmlns="http://www.w3.org/2000/svg">
<path d="M61.268 136.327H39.891C39.1275 136.327 38.3641 135.563 38.3641 134.799L39.3184 69.6909L38.7458 21.0027H1.52693C0.763464 21.0027 0 20.239 0 19.4753V4.20055C0 3.43681 0.763464 2.67308 1.52693 2.67308H99.8229C100.586 2.67308 101.35 3.43681 101.35 4.20055V19.4753C101.35 20.239 100.586 21.0027 99.8229 21.0027H62.6041L61.8406 69.6909L62.7949 134.799C62.7949 135.563 62.0315 136.327 61.268 136.327Z" fill="#FF0000"/>
<path d="M128.864 27.8764H108.633C107.869 27.8764 107.106 27.1126 107.106 26.3489V6.6827C107.106 5.91896 107.869 5.15522 108.633 5.15522H128.864C129.628 5.15522 130.391 5.91896 130.391 6.6827V26.3489C130.391 27.1126 129.628 27.8764 128.864 27.8764ZM129.055 136.327H108.633C107.869 136.327 107.106 135.563 107.106 134.799L107.487 86.4931L107.106 39.5234C107.106 38.7596 107.869 37.9959 108.633 37.9959H129.055C129.819 37.9959 130.582 38.7596 130.582 39.5234L130.01 86.4931L130.582 134.799C130.582 135.563 129.819 136.327 129.055 136.327Z" fill="#FF0000"/>
<path d="M231.468 100.431C229.56 122.58 212.763 138.618 187.187 138.618C156.649 138.618 139.089 118.57 139.089 87.4478C139.089 56.3255 156.649 35.7047 187.569 35.7047C212.382 35.7047 228.033 49.8338 230.132 71.0275C230.323 71.7912 229.56 72.5549 228.796 72.5549H210.664C209.9 72.5549 209.137 71.9821 208.946 71.0275C206.656 58.4258 198.448 52.125 187.569 52.125C170.582 52.125 162.566 64.3448 162.566 87.2569C162.566 110.933 170.773 122.198 187.569 122.389C199.975 122.58 208.564 114.56 209.71 100.431C209.9 99.4766 210.664 98.9038 211.427 98.9038H230.132C230.896 98.9038 231.659 99.6676 231.468 100.431Z" fill="#FF0000"/>
<path d="M297.472 134.99L288.501 117.806L272.087 90.3118L261.208 103.295L261.398 134.799C261.398 135.563 260.635 136.327 259.872 136.327H240.021C239.258 136.327 238.495 135.563 238.495 134.799L239.258 69.6909L238.495 4.20055C238.495 3.43681 239.258 2.67308 240.021 2.67308H259.872C260.635 2.67308 261.398 3.43681 261.398 4.20055L260.826 69.3091V77.3283L293.846 39.1415C294.418 38.3778 295.373 37.9959 296.327 37.9959H318.849C319.422 37.9959 319.803 38.7596 319.422 39.1415L288.12 73.7006L324.003 134.99C324.384 135.563 324.003 136.327 323.239 136.327H299.763C298.808 136.327 297.854 135.754 297.472 134.99Z" fill="#FF0000"/>
<path d="M391.137 102.723H410.223C410.987 102.723 411.75 103.486 411.559 104.25C408.887 123.152 392.664 138.618 366.324 138.618C334.64 138.618 317.653 117.424 317.653 87.4478C317.653 56.3255 335.786 35.7047 365.561 35.7047C396.099 35.7047 413.277 56.3255 413.85 89.9299C413.85 90.6937 413.086 91.4574 412.323 91.4574H340.557C341.512 112.46 350.1 122.389 366.706 122.389C378.73 122.389 386.556 116.47 389.228 104.25C389.419 103.295 390.373 102.723 391.137 102.723ZM389.037 75.9918C388.083 63.1992 380.83 51.7431 365.752 51.7431C352.009 51.7431 343.802 60.1442 341.321 75.9918H389.037Z" fill="#FF0000"/>
<path d="M473.91 120.288V133.272C473.91 134.227 473.337 134.99 472.383 135.181C467.611 136.709 461.885 138.045 456.541 138.045C441.081 138.045 427.148 130.217 427.148 108.26L427.339 55.1799H416.077C415.314 55.1799 414.551 54.4162 414.551 53.6525V39.5234C414.551 38.7596 415.314 37.9959 416.077 37.9959H427.339L427.148 14.8929C427.148 14.1291 427.911 13.3654 428.675 13.3654H448.716C449.479 13.3654 450.243 14.1291 450.243 14.8929L450.052 37.9959H472.383C473.146 37.9959 473.91 38.7596 473.91 39.5234V53.6525C473.91 54.4162 473.146 55.1799 472.383 55.1799H450.052V107.687C450.052 117.615 454.251 120.67 461.504 120.67C465.894 120.67 469.52 119.907 472.383 119.143C473.146 118.952 473.91 119.525 473.91 120.288Z" fill="#FF0000"/>
<path d="M601.623 88.5934C595.515 124.107 573.948 139 542.836 139C502.945 139 478.515 111.505 478.515 69.6909C478.515 27.3036 503.518 0 542.836 0C570.512 0 593.798 12.0288 600.669 47.3516C600.669 48.1154 600.096 48.8791 599.333 48.8791H579.483C578.719 48.8791 577.765 48.3063 577.574 47.3516C573.757 28.4492 560.969 18.9025 542.455 18.9025C516.879 18.9025 502.755 38.3778 502.755 69.6909C502.755 102.15 517.451 120.098 542.264 120.098C562.686 120.098 575.093 109.023 578.147 88.5934C578.338 87.6387 579.101 87.0659 579.864 87.0659H600.287C601.051 87.0659 601.623 87.8297 601.623 88.5934Z" fill="#FF0000"/>
<path d="M630.407 85.9203C630.407 108.832 638.805 122.007 654.837 122.007C670.298 122.007 679.268 110.551 679.459 87.8297C679.65 65.1085 670.87 52.5069 655.41 52.3159C638.614 52.125 630.407 64.9176 630.407 85.9203ZM700.073 136.327H680.032C679.268 136.327 678.505 135.563 678.505 134.799L678.887 122.771C672.206 132.508 661.9 138.236 648.73 138.236C621.436 138.236 607.121 116.088 607.121 87.4478C607.121 58.9986 622.772 36.0865 649.112 36.0865C662.09 36.0865 672.206 41.0508 678.887 50.5975L678.314 39.5234C678.314 38.7596 679.077 37.9959 679.841 37.9959H700.073C700.836 37.9959 701.6 38.7596 701.6 39.5234L701.027 86.875L701.6 134.799C701.6 135.563 700.836 136.327 700.073 136.327Z" fill="#FF0000"/>
<path d="M767.665 120.288V133.272C767.665 134.227 767.092 134.99 766.138 135.181C761.366 136.709 755.64 138.045 750.296 138.045C734.836 138.045 720.902 130.217 720.902 108.26L721.093 55.1799H709.832C709.069 55.1799 708.305 54.4162 708.305 53.6525V39.5234C708.305 38.7596 709.069 37.9959 709.832 37.9959H721.093L720.902 14.8929C720.902 14.1291 721.666 13.3654 722.429 13.3654H742.47C743.234 13.3654 743.997 14.1291 743.997 14.8929L743.806 37.9959H766.138C766.901 37.9959 767.665 38.7596 767.665 39.5234V53.6525C767.665 54.4162 766.901 55.1799 766.138 55.1799H743.806V107.687C743.806 117.615 748.005 120.67 755.258 120.67C759.648 120.67 763.275 119.907 766.138 119.143C766.901 118.952 767.665 119.525 767.665 120.288Z" fill="#FF0000"/>
<path d="M860.916 100.431C859.007 122.58 842.211 138.618 816.635 138.618C786.097 138.618 768.537 118.57 768.537 87.4478C768.537 56.3255 786.097 35.7047 817.017 35.7047C841.83 35.7047 857.481 49.8338 859.58 71.0275C859.771 71.7912 859.007 72.5549 858.244 72.5549H840.112C839.348 72.5549 838.585 71.9821 838.394 71.0275C836.104 58.4258 827.896 52.125 817.017 52.125C800.03 52.125 792.013 64.3448 792.013 87.2569C792.013 110.933 800.221 122.198 817.017 122.389C829.423 122.58 838.012 114.56 839.157 100.431C839.348 99.4766 840.112 98.9038 840.875 98.9038H859.58C860.344 98.9038 861.107 99.6676 860.916 100.431Z" fill="#FF0000"/>
<path d="M932.837 74.8462C932.837 59.9533 925.202 53.4615 915.468 53.4615C904.207 53.4615 893.518 62.4354 890.274 79.2376L890.846 134.799C890.846 135.563 890.083 136.327 889.319 136.327H869.469C868.706 136.327 867.942 135.563 867.942 134.799L868.706 68.9272L867.942 4.20055C867.942 3.43681 868.706 2.67308 869.469 2.67308H889.319C890.083 2.67308 890.846 3.43681 890.846 4.20055L890.465 51.1703C896.954 41.8146 907.261 35.7047 921.385 35.7047C942.762 35.7047 955.932 48.6882 955.55 77.3283V97.7582L955.932 134.799C955.932 135.563 955.168 136.327 954.405 136.327H933.982C933.219 136.327 932.455 135.563 932.455 134.799L933.028 98.1401L932.837 74.8462Z" fill="#FF0000"/>
<path d="M1036.43 102.723H1055.51C1056.28 102.723 1057.04 103.486 1056.85 104.25C1054.18 123.152 1037.95 138.618 1011.62 138.618C979.932 138.618 962.944 117.424 962.944 87.4478C962.944 56.3255 981.077 35.7047 1010.85 35.7047C1041.39 35.7047 1058.57 56.3255 1059.14 89.9299C1059.14 90.6937 1058.38 91.4574 1057.61 91.4574H985.848C986.803 112.46 995.392 122.389 1012 122.389C1024.02 122.389 1031.85 116.47 1034.52 104.25C1034.71 103.295 1035.66 102.723 1036.43 102.723ZM1034.33 75.9918C1033.37 63.1992 1026.12 51.7431 1011.04 51.7431C997.3 51.7431 989.093 60.1442 986.612 75.9918H1034.33Z" fill="#FF0000"/>
<path d="M1088.39 136.327H1068.35C1067.59 136.327 1066.82 135.563 1066.82 134.799L1067.4 86.6841L1066.82 39.5234C1066.82 38.7596 1067.59 37.9959 1068.35 37.9959H1088.2C1088.96 37.9959 1089.73 38.7596 1089.73 39.5234L1089.15 55.1799C1096.41 43.342 1109.39 37.2321 1123.32 37.2321C1125.23 37.2321 1126.95 37.4231 1128.47 37.614C1129.24 37.8049 1130 38.7596 1130 39.5234V54.4162C1130 55.1799 1129.24 55.7527 1128.47 55.7527C1127.14 55.5618 1125.42 55.5618 1123.89 55.5618C1105.38 55.5618 1090.49 66.2541 1089.73 88.5934L1089.92 134.799C1089.92 135.563 1089.15 136.327 1088.39 136.327Z" fill="#FF0000"/>
</svg>
