<svg width="1130" height="447" viewBox="0 0 1130 447" fill="none" xmlns="http://www.w3.org/2000/svg">
<path d="M61.268 136.327H39.891C39.1275 136.327 38.3641 135.563 38.3641 134.799L39.3184 69.6909L38.7458 21.0027H1.52693C0.763464 21.0027 7.28187e-09 20.239 7.28187e-09 19.4753V4.20055C7.28187e-09 3.43681 0.763464 2.67308 1.52693 2.67308H99.8229C100.586 2.67308 101.35 3.43681 101.35 4.20055V19.4753C101.35 20.239 100.586 21.0027 99.8229 21.0027H62.6041L61.8406 69.6909L62.7949 134.799C62.7949 135.563 62.0315 136.327 61.268 136.327Z" fill="#FF0000"/>
<path d="M128.864 27.8764H108.633C107.869 27.8764 107.106 27.1126 107.106 26.3489V6.6827C107.106 5.91896 107.869 5.15522 108.633 5.15522H128.864C129.628 5.15522 130.391 5.91896 130.391 6.6827V26.3489C130.391 27.1126 129.628 27.8764 128.864 27.8764ZM129.055 136.327H108.633C107.869 136.327 107.106 135.563 107.106 134.799L107.487 86.4931L107.106 39.5234C107.106 38.7596 107.869 37.9959 108.633 37.9959H129.055C129.819 37.9959 130.582 38.7596 130.582 39.5234L130.01 86.4931L130.582 134.799C130.582 135.563 129.819 136.327 129.055 136.327Z" fill="#FF0000"/>
<path d="M231.468 100.431C229.56 122.58 212.763 138.618 187.187 138.618C156.649 138.618 139.089 118.57 139.089 87.4478C139.089 56.3255 156.649 35.7047 187.569 35.7047C212.382 35.7047 228.033 49.8338 230.132 71.0275C230.323 71.7912 229.56 72.5549 228.796 72.5549H210.664C209.9 72.5549 209.137 71.9821 208.946 71.0275C206.656 58.4258 198.448 52.125 187.569 52.125C170.582 52.125 162.566 64.3448 162.566 87.2569C162.566 110.933 170.773 122.198 187.569 122.389C199.975 122.58 208.564 114.56 209.71 100.431C209.9 99.4766 210.664 98.9038 211.427 98.9038H230.132C230.896 98.9038 231.659 99.6676 231.468 100.431Z" fill="#FF0000"/>
<path d="M297.472 134.99L288.501 117.806L272.087 90.3118L261.208 103.295L261.398 134.799C261.398 135.563 260.635 136.327 259.872 136.327H240.021C239.258 136.327 238.495 135.563 238.495 134.799L239.258 69.6909L238.495 4.20055C238.495 3.43681 239.258 2.67308 240.021 2.67308H259.872C260.635 2.67308 261.398 3.43681 261.398 4.20055L260.826 69.3091V77.3283L293.846 39.1415C294.418 38.3778 295.373 37.9959 296.327 37.9959H318.849C319.422 37.9959 319.803 38.7596 319.422 39.1415L288.12 73.7006L324.003 134.99C324.384 135.563 324.003 136.327 323.239 136.327H299.763C298.808 136.327 297.854 135.754 297.472 134.99Z" fill="#FF0000"/>
<path d="M391.137 102.723H410.223C410.987 102.723 411.75 103.486 411.559 104.25C408.887 123.152 392.664 138.618 366.324 138.618C334.64 138.618 317.653 117.424 317.653 87.4478C317.653 56.3255 335.786 35.7047 365.561 35.7047C396.099 35.7047 413.277 56.3255 413.85 89.9299C413.85 90.6937 413.086 91.4574 412.323 91.4574H340.557C341.512 112.46 350.1 122.389 366.706 122.389C378.73 122.389 386.556 116.47 389.228 104.25C389.419 103.295 390.373 102.723 391.137 102.723ZM389.037 75.9918C388.083 63.1992 380.83 51.7431 365.751 51.7431C352.009 51.7431 343.802 60.1442 341.321 75.9918H389.037Z" fill="#FF0000"/>
<path d="M473.91 120.288V133.272C473.91 134.227 473.337 134.99 472.383 135.181C467.611 136.709 461.885 138.045 456.541 138.045C441.081 138.045 427.148 130.217 427.148 108.26L427.339 55.1799H416.077C415.314 55.1799 414.551 54.4162 414.551 53.6525V39.5234C414.551 38.7596 415.314 37.9959 416.077 37.9959H427.339L427.148 14.8929C427.148 14.1291 427.911 13.3654 428.675 13.3654H448.716C449.479 13.3654 450.243 14.1291 450.243 14.8929L450.052 37.9959H472.383C473.146 37.9959 473.91 38.7596 473.91 39.5234V53.6525C473.91 54.4162 473.146 55.1799 472.383 55.1799H450.052V107.687C450.052 117.615 454.251 120.67 461.504 120.67C465.894 120.67 469.52 119.907 472.383 119.143C473.146 118.952 473.91 119.525 473.91 120.288Z" fill="#FF0000"/>
<path d="M601.623 88.5934C595.515 124.107 573.948 139 542.836 139C502.945 139 478.515 111.505 478.515 69.6909C478.515 27.3036 503.518 0 542.836 0C570.512 0 593.798 12.0289 600.669 47.3517C600.669 48.1154 600.096 48.8791 599.333 48.8791H579.483C578.719 48.8791 577.765 48.3063 577.574 47.3517C573.757 28.4492 560.969 18.9025 542.455 18.9025C516.879 18.9025 502.755 38.3777 502.755 69.6909C502.755 102.15 517.451 120.098 542.264 120.098C562.687 120.098 575.093 109.023 578.147 88.5934C578.337 87.6387 579.101 87.0659 579.864 87.0659H600.287C601.05 87.0659 601.623 87.8297 601.623 88.5934Z" fill="#FF0000"/>
<path d="M630.407 85.9203C630.407 108.832 638.805 122.007 654.838 122.007C670.298 122.007 679.268 110.551 679.459 87.8297C679.65 65.1085 670.87 52.5069 655.41 52.3159C638.614 52.125 630.407 64.9176 630.407 85.9203ZM700.073 136.327H680.032C679.268 136.327 678.505 135.563 678.505 134.799L678.887 122.771C672.206 132.508 661.9 138.236 648.73 138.236C621.436 138.236 607.121 116.088 607.121 87.4478C607.121 58.9986 622.772 36.0865 649.112 36.0865C662.09 36.0865 672.206 41.0508 678.887 50.5975L678.314 39.5234C678.314 38.7596 679.077 37.9959 679.841 37.9959H700.073C700.836 37.9959 701.6 38.7596 701.6 39.5234L701.027 86.875L701.6 134.799C701.6 135.563 700.836 136.327 700.073 136.327Z" fill="#FF0000"/>
<path d="M767.665 120.288V133.272C767.665 134.227 767.092 134.99 766.138 135.181C761.366 136.709 755.64 138.045 750.296 138.045C734.836 138.045 720.902 130.217 720.902 108.26L721.093 55.1799H709.832C709.069 55.1799 708.305 54.4162 708.305 53.6525V39.5234C708.305 38.7596 709.069 37.9959 709.832 37.9959H721.093L720.902 14.8929C720.902 14.1291 721.666 13.3654 722.429 13.3654H742.47C743.234 13.3654 743.997 14.1291 743.997 14.8929L743.806 37.9959H766.138C766.901 37.9959 767.665 38.7596 767.665 39.5234V53.6525C767.665 54.4162 766.901 55.1799 766.138 55.1799H743.806V107.687C743.806 117.615 748.005 120.67 755.258 120.67C759.648 120.67 763.275 119.907 766.138 119.143C766.901 118.952 767.665 119.525 767.665 120.288Z" fill="#FF0000"/>
<path d="M860.916 100.431C859.008 122.58 842.211 138.618 816.635 138.618C786.097 138.618 768.537 118.57 768.537 87.4478C768.537 56.3255 786.097 35.7047 817.017 35.7047C841.83 35.7047 857.481 49.8338 859.58 71.0275C859.771 71.7912 859.008 72.5549 858.244 72.5549H840.112C839.348 72.5549 838.585 71.9821 838.394 71.0275C836.104 58.4258 827.896 52.125 817.017 52.125C800.03 52.125 792.013 64.3448 792.013 87.2569C792.013 110.933 800.221 122.198 817.017 122.389C829.423 122.58 838.012 114.56 839.157 100.431C839.348 99.4766 840.112 98.9038 840.875 98.9038H859.58C860.344 98.9038 861.107 99.6676 860.916 100.431Z" fill="#FF0000"/>
<path d="M932.837 74.8462C932.837 59.9533 925.202 53.4615 915.468 53.4615C904.207 53.4615 893.518 62.4354 890.274 79.2376L890.846 134.799C890.846 135.563 890.083 136.327 889.319 136.327H869.469C868.706 136.327 867.942 135.563 867.942 134.799L868.706 68.9272L867.942 4.20055C867.942 3.43681 868.706 2.67308 869.469 2.67308H889.319C890.083 2.67308 890.846 3.43681 890.846 4.20055L890.465 51.1703C896.954 41.8146 907.261 35.7047 921.385 35.7047C942.762 35.7047 955.932 48.6882 955.55 77.3283V97.7582L955.932 134.799C955.932 135.563 955.168 136.327 954.405 136.327H933.982C933.219 136.327 932.455 135.563 932.455 134.799L933.028 98.1401L932.837 74.8462Z" fill="#FF0000"/>
<path d="M1036.43 102.723H1055.51C1056.28 102.723 1057.04 103.486 1056.85 104.25C1054.18 123.152 1037.95 138.618 1011.62 138.618C979.932 138.618 962.944 117.424 962.944 87.4478C962.944 56.3255 981.077 35.7047 1010.85 35.7047C1041.39 35.7047 1058.57 56.3255 1059.14 89.9299C1059.14 90.6937 1058.38 91.4574 1057.61 91.4574H985.848C986.803 112.46 995.392 122.389 1012 122.389C1024.02 122.389 1031.85 116.47 1034.52 104.25C1034.71 103.295 1035.66 102.723 1036.43 102.723ZM1034.33 75.9918C1033.37 63.1992 1026.12 51.7431 1011.04 51.7431C997.3 51.7431 989.093 60.1442 986.612 75.9918H1034.33Z" fill="#FF0000"/>
<path d="M1088.39 136.327H1068.35C1067.59 136.327 1066.82 135.563 1066.82 134.799L1067.4 86.6841L1066.82 39.5234C1066.82 38.7596 1067.59 37.9959 1068.35 37.9959H1088.2C1088.96 37.9959 1089.73 38.7596 1089.73 39.5234L1089.15 55.1799C1096.41 43.342 1109.39 37.2321 1123.32 37.2321C1125.23 37.2321 1126.95 37.4231 1128.47 37.614C1129.24 37.8049 1130 38.7596 1130 39.5234V54.4162C1130 55.1799 1129.24 55.7527 1128.47 55.7527C1127.14 55.5618 1125.42 55.5618 1123.89 55.5618C1105.38 55.5618 1090.49 66.2541 1089.73 88.5934L1089.92 134.799C1089.92 135.563 1089.15 136.327 1088.39 136.327Z" fill="#FF0000"/>
<path d="M89.2765 241.428C89.2765 290.982 238.899 265.044 238.899 353.699C238.899 401.317 199.361 447 120.286 447C52.84 447 -2.9777 415.642 0.123283 352.925C0.510906 350.989 2.0614 349.44 3.99951 349.44H58.6543C60.5924 349.44 62.1429 350.989 62.1429 352.925C64.4687 383.509 83.8498 402.866 124.163 402.866C165.638 402.866 176.104 381.186 176.104 366.862C176.104 313.436 27.6445 343.633 27.6445 253.43C27.6445 206.973 65.2439 164 144.319 164C203.625 164 250.528 187.228 254.016 246.461C254.016 248.397 252.466 249.945 250.528 249.945H195.485C193.547 249.945 191.997 248.397 191.997 246.461C190.446 224.007 171.065 208.521 140.443 208.521C111.371 208.521 89.2765 221.684 89.2765 241.428Z" fill="#FF0000"/>
<path d="M389.333 373.443H438.173C440.112 373.443 441.274 374.992 440.887 376.928C430.809 413.319 397.861 445.839 335.841 445.839C274.984 445.839 245.525 409.834 245.525 361.055C245.525 303.371 280.023 236.395 365.688 236.395C431.196 236.395 466.858 279.755 450.19 349.44C449.802 351.376 447.864 352.925 445.926 352.925H302.893V360.668C302.893 391.252 313.746 407.124 338.554 407.124C361.424 407.124 378.092 398.22 385.069 376.928C385.457 374.605 387.395 373.443 389.333 373.443ZM395.147 316.146C399.411 295.241 386.62 274.722 360.261 274.722C335.453 274.722 318.398 290.982 309.483 316.146H395.147Z" fill="#FF0000"/>
<path d="M498.973 440.806H446.256C444.318 440.806 443.155 439.257 443.543 437.321L466.412 345.182L488.894 244.912C489.282 242.977 491.22 241.428 493.158 241.428H542.386C544.325 241.428 545.487 242.977 545.1 244.912L538.898 266.592C555.566 249.945 577.66 236.783 602.468 236.783C647.432 236.783 671.852 264.657 660.999 314.211L652.084 356.022L634.253 437.321C633.865 439.257 631.927 440.806 629.989 440.806H578.048C576.497 440.806 574.947 439.257 575.334 437.321L595.878 356.022L605.181 314.985C610.22 292.918 598.979 279.368 578.435 279.368C559.054 279.368 534.634 298.725 524.556 341.311L521.455 356.022L503.237 437.321C502.849 439.257 500.911 440.806 498.973 440.806Z" fill="#FF0000"/>
<path d="M732.697 332.406C721.068 380.412 736.573 406.35 766.033 405.963C790.841 406.35 807.508 387.38 816.424 350.989C826.89 303.758 812.935 278.207 786.189 276.271C784.639 276.271 780.762 276.271 779.212 276.271C756.342 277.819 740.45 296.789 732.697 332.406ZM847.433 440.806H795.88C794.329 440.806 792.779 439.257 793.166 437.321L796.655 424.933C781.925 437.321 764.482 444.677 743.551 444.677C690.059 444.677 657.498 396.285 674.166 325.825C684.632 280.529 714.091 237.557 769.909 237.557C797.818 237.557 819.912 248.784 831.929 270.077L854.023 173.291C854.411 171.356 856.349 169.807 858.287 169.807H909.841C911.779 169.807 912.942 171.356 912.554 173.291L881.157 305.306L851.697 437.321C851.31 439.257 849.372 440.806 847.433 440.806Z" fill="#FF0000"/>
<path d="M933.283 440.806H880.566C878.628 440.806 877.465 439.257 877.853 437.321L910.413 305.306L939.097 173.291C939.485 171.356 941.423 169.807 943.361 169.807H996.078C998.016 169.807 999.179 171.356 998.791 173.291L966.231 305.306L937.547 437.321C937.159 439.257 935.221 440.806 933.283 440.806Z" fill="#FF0000"/>
<path d="M1093.1 402.479L1085.74 433.45C1085.35 435.386 1083.41 437.321 1081.47 438.096C1069.84 441.58 1056.28 444.677 1043.87 444.677C1010.15 444.677 981.854 427.643 992.32 382.347L1015.96 282.465H993.095C991.544 282.465 989.994 280.917 990.382 278.981L998.522 244.912C998.909 242.977 1000.85 241.428 1002.79 241.428H1024.88L1034.96 194.971C1035.35 193.036 1037.28 191.487 1039.22 191.487H1091.94C1093.88 191.487 1095.04 193.036 1094.65 194.971L1083.02 241.428H1127.21C1129.15 241.428 1130.31 242.977 1129.93 244.912L1121.79 278.981C1121.4 280.917 1119.46 282.465 1117.52 282.465H1073.33L1050.85 380.799C1046.97 397.833 1053.95 403.253 1066.74 403.253C1076.43 403.253 1084.19 401.705 1090.39 399.769C1091.94 399.382 1093.49 400.93 1093.1 402.479Z" fill="#FF0000"/>
</svg>
