<svg width="1130" height="283" viewBox="0 0 1130 283" fill="none" xmlns="http://www.w3.org/2000/svg">
<path d="M89.2765 77.4282C89.2765 126.982 238.899 101.044 238.899 189.699C238.899 237.317 199.361 283 120.286 283C52.84 283 -2.9777 251.642 0.123283 188.925C0.510906 186.989 2.0614 185.44 3.99951 185.44H58.6543C60.5924 185.44 62.1429 186.989 62.1429 188.925C64.4687 219.509 83.8498 238.866 124.163 238.866C165.638 238.866 176.104 217.186 176.104 202.862C176.104 149.436 27.6445 179.633 27.6445 89.4296C27.6445 42.9726 65.2439 0 144.319 0C203.625 0 250.528 23.2285 254.016 82.461C254.016 84.3967 252.466 85.9453 250.528 85.9453H195.485C193.547 85.9453 191.997 84.3967 191.997 82.461C190.446 60.0069 171.065 44.5212 140.443 44.5212C111.371 44.5212 89.2765 57.684 89.2765 77.4282Z" fill="#FF0000"/>
<path d="M389.333 209.443H438.173C440.112 209.443 441.274 210.992 440.887 212.928C430.809 249.319 397.861 281.839 335.841 281.839C274.984 281.839 245.525 245.834 245.525 197.055C245.525 139.371 280.023 72.3954 365.688 72.3954C431.196 72.3954 466.858 115.755 450.19 185.44C449.802 187.376 447.864 188.925 445.926 188.925H302.893V196.668C302.893 227.252 313.746 243.124 338.554 243.124C361.424 243.124 378.092 234.22 385.069 212.928C385.457 210.605 387.395 209.443 389.333 209.443ZM395.147 152.146C399.411 131.241 386.62 110.722 360.261 110.722C335.453 110.722 318.398 126.982 309.483 152.146H395.147Z" fill="#FF0000"/>
<path d="M498.973 276.806H446.256C444.318 276.806 443.155 275.257 443.543 273.321L466.412 181.182L488.894 80.9124C489.282 78.9767 491.22 77.4282 493.158 77.4282H542.386C544.325 77.4282 545.487 78.9767 545.1 80.9124L538.898 102.592C555.566 85.9453 577.66 72.7825 602.468 72.7825C647.432 72.7825 671.852 100.657 660.999 150.211L652.084 192.022L634.253 273.321C633.865 275.257 631.927 276.806 629.989 276.806H578.048C576.497 276.806 574.947 275.257 575.334 273.321L595.878 192.022L605.181 150.985C610.22 128.918 598.979 115.368 578.435 115.368C559.054 115.368 534.634 134.725 524.556 177.311L521.455 192.022L503.237 273.321C502.849 275.257 500.911 276.806 498.973 276.806Z" fill="#FF0000"/>
<path d="M732.697 168.406C721.068 216.412 736.573 242.35 766.033 241.963C790.841 242.35 807.508 223.38 816.424 186.989C826.89 139.758 812.935 114.207 786.189 112.271C784.639 112.271 780.762 112.271 779.212 112.271C756.342 113.819 740.45 132.789 732.697 168.406ZM847.433 276.806H795.88C794.329 276.806 792.779 275.257 793.166 273.321L796.655 260.933C781.925 273.321 764.482 280.677 743.551 280.677C690.059 280.677 657.498 232.285 674.166 161.825C684.632 116.529 714.091 73.5568 769.909 73.5568C797.818 73.5568 819.912 84.7838 831.929 106.077L854.023 9.29138C854.411 7.35568 856.349 5.80711 858.287 5.80711H909.841C911.779 5.80711 912.942 7.35568 912.554 9.29138L881.157 141.306L851.697 273.321C851.31 275.257 849.372 276.806 847.433 276.806Z" fill="#FF0000"/>
<path d="M933.283 276.806H880.566C878.628 276.806 877.465 275.257 877.853 273.321L910.413 141.306L939.097 9.29138C939.485 7.35568 941.423 5.80711 943.361 5.80711H996.078C998.016 5.80711 999.179 7.35568 998.791 9.29138L966.231 141.306L937.547 273.321C937.159 275.257 935.221 276.806 933.283 276.806Z" fill="#FF0000"/>
<path d="M1093.1 238.479L1085.74 269.45C1085.35 271.386 1083.41 273.321 1081.47 274.096C1069.84 277.58 1056.28 280.677 1043.87 280.677C1010.15 280.677 981.854 263.643 992.32 218.347L1015.96 118.465H993.095C991.544 118.465 989.994 116.917 990.382 114.981L998.522 80.9124C998.909 78.9767 1000.85 77.4282 1002.79 77.4282H1024.88L1034.96 30.9713C1035.35 29.0356 1037.28 27.487 1039.22 27.487H1091.94C1093.88 27.487 1095.04 29.0356 1094.65 30.9713L1083.02 77.4282H1127.21C1129.15 77.4282 1130.31 78.9767 1129.93 80.9124L1121.79 114.981C1121.4 116.917 1119.46 118.465 1117.52 118.465H1073.33L1050.85 216.799C1046.97 233.833 1053.95 239.253 1066.74 239.253C1076.43 239.253 1084.19 237.705 1090.39 235.769C1091.94 235.382 1093.49 236.93 1093.1 238.479Z" fill="#FF0000"/>
</svg>
